<svg width="329" height="183" viewBox="0 0 329 183" fill="none" xmlns="http://www.w3.org/2000/svg">
<path d="M310.18 90.4564C304.59 89.0257 299.715 87.8552 299.715 83.2381C299.715 79.5964 302.445 77.3854 306.865 77.3854C311.285 77.3854 314.34 79.7915 315.38 83.9534L326.365 78.686C323.505 71.3376 316.355 66.9807 307.19 66.9807C295.425 66.9807 287.17 74.199 287.17 84.4737C287.17 97.0894 296.335 99.4305 304.395 101.511C310.05 102.942 314.925 104.243 314.925 108.99C314.925 112.892 311.805 115.428 306.93 115.428C302.055 115.428 298.09 112.762 296.985 108.86L286 114.127C289.055 121.346 296.855 125.768 306.41 125.768C319.215 125.768 327.47 118.614 327.47 107.559C327.6 94.8134 317.915 92.4073 310.18 90.4564Z" fill="white"/>
<path d="M312.78 41.6191H319.15V32.9701H325.65L327.275 27.3125H319.15V21.85H328.38V16.0624H312.78V41.6191Z" fill="white"/>
<path d="M296.725 42.3994C304.07 42.3994 310.115 36.4166 310.115 29.1333C310.115 21.785 304.135 15.8672 296.725 15.8672C289.38 15.8672 283.335 21.85 283.335 29.1333C283.4 36.4166 289.38 42.3994 296.725 42.3994ZM296.725 21.98C300.69 21.98 303.875 25.1665 303.875 29.1333C303.875 33.0351 300.69 36.2866 296.725 36.2866C292.76 36.2866 289.575 33.1001 289.575 29.1333C289.575 25.1665 292.825 21.98 296.725 21.98Z" fill="white"/>
<path d="M177.32 67.3058L180.05 72.9634V124.142H191.945V86.7497L218.66 124.142H231.075V67.3058H219.18V105.218L192.66 67.3058H177.32Z" fill="white"/>
<path d="M267.215 69.6469C263.705 68.2162 258.635 67.3058 255.97 67.3058H236.6V124.142H255.905C259.87 124.142 263.64 123.426 267.15 121.996C270.66 120.565 273.78 118.549 276.445 116.013C279.11 113.477 281.19 110.486 282.685 107.039C284.18 103.592 284.96 99.8857 284.96 95.8538C284.96 91.887 284.18 88.1153 282.685 84.6687C281.19 81.2221 279.11 78.2308 276.445 75.6946C273.845 73.1585 270.79 71.1425 267.215 69.6469ZM271.115 102.487C270.27 104.568 269.035 106.324 267.54 107.819C266.045 109.315 264.29 110.551 262.21 111.396C260.13 112.306 257.92 112.697 255.58 112.697H248.82V78.816H255.645C257.985 78.816 260.195 79.2713 262.275 80.1817C264.355 81.0921 266.11 82.2626 267.605 83.7583C269.1 85.254 270.27 87.0748 271.18 89.1558C272.025 91.2367 272.48 93.4477 272.48 95.7888C272.48 98.1949 272.025 100.406 271.115 102.487Z" fill="white"/>
<path d="M41.925 67.3058V124.142H75.7251V113.152L54.275 113.022V100.601H70.85L73.8401 89.8711H54.275V78.3608H75.7251V67.3058H41.925Z" fill="white"/>
<path d="M172.64 89.8711H153.01V78.3608H174.525V67.3058H140.725V124.142H174.525V113.152L153.01 113.022V100.601H169.65L172.64 89.8711Z" fill="white"/>
<path d="M200.395 52.6091C202.345 54.69 204.75 56.2507 207.545 57.3562C210.34 58.4617 213.59 59.047 217.165 59.047C220.74 59.047 223.99 58.5268 226.785 57.4213C229.645 56.3158 232.05 54.755 234 52.7391C235.95 50.7232 237.51 48.2521 238.55 45.3257C239.655 42.3994 240.175 39.1479 240.175 35.6363L240.37 0.325136H227.955L227.76 34.921C227.76 38.7577 226.85 41.7491 225.03 43.9601C223.21 46.1711 220.61 47.2766 217.165 47.2116C213.72 47.2116 211.12 46.1061 209.365 43.83C207.61 41.619 206.7 38.5626 206.7 34.7259L206.895 0.195068H194.48L194.285 35.3111C194.285 38.8878 194.805 42.1393 195.845 45.0656C196.95 48.057 198.445 50.5281 200.395 52.6091Z" fill="white"/>
<path d="M140.725 50.0729C143.39 52.7391 146.51 54.8851 150.085 56.4458C153.725 58.0065 157.56 58.7869 161.785 58.7869C165.88 58.7869 169.65 58.1366 173.095 56.706C176.54 55.2753 179.53 53.3244 182.065 50.8533C184.6 48.3821 186.55 45.3908 187.98 41.9442C189.02 39.4731 189.67 36.8719 189.995 34.1406C190.125 33.1002 190.255 28.353 190.125 26.207H161.915L156.91 36.4817H176.995C176.215 39.7332 174.46 42.3994 171.73 44.4153C169 46.4312 165.75 47.4067 161.915 47.4067C159.445 47.4067 157.17 46.8865 155.09 45.976C152.945 45.0006 151.125 43.7 149.565 42.0743C148.005 40.4485 146.77 38.5626 145.86 36.3516C144.95 34.1406 144.56 31.7995 144.56 29.3284C144.56 26.8573 145.015 24.5162 145.925 22.3052C146.835 20.0942 148.07 18.2083 149.695 16.5826C151.255 14.9568 153.14 13.7213 155.22 12.8109C157.3 11.9004 159.575 11.4452 162.045 11.4452C165.36 11.4452 168.285 12.2256 170.82 13.6562C173.355 15.1519 175.37 17.2329 176.735 20.0292L187.85 14.7618C185.51 10.1446 182.13 6.568 177.58 3.96681C173.03 1.36562 167.895 0 162.11 0C158.015 0 154.18 0.715327 150.54 2.27604C146.9 3.77173 143.715 5.9177 140.985 8.51889C138.255 11.1851 136.11 14.3065 134.55 17.8182C132.925 21.3948 132.145 25.1665 132.145 29.1984C132.145 33.2302 132.86 37.067 134.42 40.6436C135.98 44.2853 138.06 47.4067 140.725 50.0729Z" fill="white"/>
<path d="M0 0.325134L2.795 6.17781V51.5036L0 57.3562H34.645L37.765 46.2361H15.08V0.325134H0Z" fill="white"/>
<path d="M0 67.1107L2.795 73.0284V118.289L0 124.207H34.645L37.765 113.022H15.08V67.1107H0Z" fill="white"/>
<path d="M41.925 0.4552V57.3563H75.7251V46.3662L54.275 46.2362V33.7504H70.85L73.8401 23.0856H54.275V11.5753H75.7251V0.4552H41.925Z" fill="white"/>
<path d="M245.765 0.4552V57.3563H279.565V46.3662L258.05 46.2362V33.7504H274.69L277.68 23.0856H258.05V11.5753H279.565V0.4552H245.765Z" fill="white"/>
<path d="M92.2349 57.3562L96.5249 46.2361H119.275L123.695 57.3562H136.5L113.685 0.325134H96.1999L99.8399 7.73852L79.6899 57.3562H92.2349ZM108.095 16.2574L115.18 35.3762H100.685L108.095 16.2574Z" fill="white"/>
<path d="M101.335 113.087C101.205 113.022 101.01 112.957 100.88 112.892C98.7351 111.916 96.9151 110.616 95.3551 108.99C93.7951 107.364 92.5601 105.478 91.6501 103.267C90.7401 101.056 90.3501 98.7152 90.3501 96.2441C90.3501 93.7729 90.8051 91.4319 91.7151 89.2208C92.6251 87.0098 93.8601 85.124 95.4851 83.4982C97.0451 81.8725 98.9301 80.6369 101.01 79.7265C103.09 78.8161 105.365 78.3609 107.835 78.3609C111.15 78.3609 114.075 79.1412 116.61 80.5719C119.145 82.0676 121.16 84.1485 122.525 86.9448L133.64 81.6774C131.3 77.0603 127.92 73.4837 123.37 70.8825C118.82 68.2813 113.685 66.9156 107.9 66.9156C103.805 66.9156 99.9701 67.631 96.3301 69.1917C92.6901 70.6874 89.5051 72.8334 86.7751 75.4346C84.0451 78.1008 81.9001 81.2222 80.3401 84.7338C78.7151 88.3104 77.9351 92.0822 77.9351 96.114C77.9351 100.146 78.6501 103.983 80.2101 107.559C81.7701 111.136 83.8501 114.257 86.5151 116.924C89.0501 119.46 92.0401 121.541 95.4201 123.036L101.335 113.087Z" fill="white"/>
<path d="M135.915 93.1876H107.64L102.635 103.462H122.72C121.94 106.714 120.185 109.38 117.455 111.396C114.725 113.412 111.475 114.387 107.64 114.387C105.95 114.387 104.325 114.127 102.765 113.672L100.035 124.857C102.44 125.442 104.91 125.768 107.51 125.768C111.605 125.768 115.375 125.117 118.82 123.687C122.265 122.256 125.255 120.305 127.79 117.834C130.325 115.363 132.275 112.371 133.705 108.925C134.745 106.454 135.395 103.853 135.72 101.121C135.85 100.081 136.045 95.3336 135.915 93.1876Z" fill="white"/>
<path d="M7.5 174.583H2.11364V157.128H7.73864C9.43182 157.128 10.8807 157.478 12.0852 158.176C13.2898 158.87 14.2131 159.867 14.8551 161.168C15.4972 162.463 15.8182 164.014 15.8182 165.821C15.8182 167.639 15.4943 169.205 14.8466 170.517C14.1989 171.824 13.2557 172.83 12.017 173.534C10.7784 174.233 9.27273 174.583 7.5 174.583ZM4.22727 172.708H7.36364C8.80682 172.708 10.0028 172.429 10.9517 171.872C11.9006 171.316 12.608 170.523 13.0739 169.495C13.5398 168.466 13.7727 167.242 13.7727 165.821C13.7727 164.412 13.5426 163.199 13.0824 162.182C12.6222 161.159 11.9347 160.375 11.0199 159.83C10.1051 159.279 8.96591 159.003 7.60227 159.003H4.22727V172.708ZM24.5795 174.855C23.3182 174.855 22.2301 174.577 21.3153 174.02C20.4062 173.458 19.7045 172.674 19.2102 171.668C18.7216 170.657 18.4773 169.48 18.4773 168.139C18.4773 166.799 18.7216 165.617 19.2102 164.594C19.7045 163.566 20.392 162.764 21.2727 162.191C22.1591 161.611 23.1932 161.321 24.375 161.321C25.0568 161.321 25.7301 161.435 26.3949 161.662C27.0597 161.889 27.6648 162.259 28.2102 162.77C28.7557 163.276 29.1903 163.946 29.5142 164.782C29.8381 165.617 30 166.645 30 167.867V168.719H19.9091V166.98H27.9545C27.9545 166.242 27.8068 165.583 27.5114 165.003C27.2216 164.424 26.8068 163.966 26.267 163.631C25.733 163.296 25.1023 163.128 24.375 163.128C23.5739 163.128 22.8807 163.327 22.2955 163.725C21.7159 164.117 21.2699 164.628 20.9574 165.259C20.6449 165.889 20.4886 166.566 20.4886 167.287V168.446C20.4886 169.435 20.6591 170.273 21 170.96C21.3466 171.642 21.8267 172.162 22.4403 172.52C23.054 172.872 23.767 173.049 24.5795 173.049C25.108 173.049 25.5852 172.975 26.0114 172.827C26.4432 172.674 26.8153 172.446 27.1278 172.145C27.4403 171.838 27.6818 171.458 27.8523 171.003L29.7955 171.549C29.5909 172.208 29.2472 172.787 28.7642 173.287C28.2813 173.782 27.6847 174.168 26.9744 174.446C26.2642 174.719 25.4659 174.855 24.5795 174.855ZM42.3324 164.424L40.5256 164.935C40.4119 164.634 40.2443 164.341 40.0227 164.057C39.8068 163.767 39.5114 163.529 39.1364 163.341C38.7614 163.154 38.2812 163.06 37.696 163.06C36.8949 163.06 36.2273 163.245 35.6932 163.614C35.1648 163.978 34.9006 164.441 34.9006 165.003C34.9006 165.503 35.0824 165.898 35.446 166.188C35.8097 166.478 36.3778 166.719 37.1506 166.912L39.0938 167.389C40.2642 167.674 41.1364 168.108 41.7102 168.693C42.2841 169.273 42.571 170.02 42.571 170.935C42.571 171.685 42.3551 172.355 41.9233 172.946C41.4972 173.537 40.9006 174.003 40.1335 174.344C39.3665 174.685 38.4744 174.855 37.4574 174.855C36.1222 174.855 35.017 174.566 34.142 173.986C33.267 173.407 32.7131 172.56 32.4801 171.446L34.3892 170.969C34.571 171.674 34.9148 172.202 35.4205 172.554C35.9318 172.907 36.5994 173.083 37.4233 173.083C38.3608 173.083 39.1051 172.884 39.6562 172.486C40.2131 172.083 40.4915 171.6 40.4915 171.037C40.4915 170.583 40.3324 170.202 40.0142 169.895C39.696 169.583 39.2074 169.35 38.5483 169.196L36.3665 168.685C35.1676 168.401 34.2869 167.96 33.7244 167.364C33.1676 166.762 32.8892 166.009 32.8892 165.105C32.8892 164.367 33.0966 163.713 33.5114 163.145C33.9318 162.577 34.5028 162.131 35.2244 161.807C35.9517 161.483 36.7756 161.321 37.696 161.321C38.9915 161.321 40.0085 161.605 40.7472 162.174C41.4915 162.742 42.0199 163.492 42.3324 164.424ZM45.5987 174.583V161.492H47.6101V174.583H45.5987ZM46.6214 159.31C46.2294 159.31 45.8913 159.176 45.6072 158.909C45.3288 158.642 45.1896 158.321 45.1896 157.946C45.1896 157.571 45.3288 157.25 45.6072 156.983C45.8913 156.716 46.2294 156.583 46.6214 156.583C47.0135 156.583 47.3487 156.716 47.6271 156.983C47.9112 157.25 48.0533 157.571 48.0533 157.946C48.0533 158.321 47.9112 158.642 47.6271 158.909C47.3487 159.176 47.0135 159.31 46.6214 159.31ZM56.5781 179.764C55.6065 179.764 54.7713 179.639 54.0724 179.389C53.3736 179.145 52.7912 178.821 52.3253 178.418C51.8651 178.02 51.4986 177.594 51.2259 177.139L52.8281 176.014C53.0099 176.253 53.2401 176.526 53.5185 176.833C53.7969 177.145 54.1776 177.415 54.6605 177.642C55.1491 177.875 55.7884 177.992 56.5781 177.992C57.6349 177.992 58.5071 177.736 59.1946 177.225C59.8821 176.713 60.2259 175.912 60.2259 174.821V172.162H60.0554C59.9077 172.401 59.6974 172.696 59.4247 173.049C59.1577 173.395 58.7713 173.705 58.2656 173.978C57.7656 174.245 57.0895 174.378 56.2372 174.378C55.1804 174.378 54.2315 174.128 53.3906 173.628C52.5554 173.128 51.8935 172.401 51.4048 171.446C50.9219 170.492 50.6804 169.333 50.6804 167.969C50.6804 166.628 50.9162 165.46 51.3878 164.466C51.8594 163.466 52.5156 162.693 53.3565 162.148C54.1974 161.597 55.169 161.321 56.2713 161.321C57.1236 161.321 57.7997 161.463 58.2997 161.747C58.8054 162.026 59.1918 162.344 59.4588 162.702C59.7315 163.054 59.9418 163.344 60.0895 163.571H60.294V161.492H62.2372V174.958C62.2372 176.083 61.9815 176.997 61.4702 177.702C60.9645 178.412 60.2827 178.932 59.4247 179.262C58.5724 179.597 57.6236 179.764 56.5781 179.764ZM56.5099 172.571C57.3168 172.571 57.9986 172.387 58.5554 172.017C59.1122 171.648 59.5355 171.117 59.8253 170.424C60.1151 169.73 60.2599 168.901 60.2599 167.935C60.2599 166.992 60.1179 166.159 59.8338 165.438C59.5497 164.716 59.1293 164.151 58.5724 163.742C58.0156 163.333 57.3281 163.128 56.5099 163.128C55.6577 163.128 54.9474 163.344 54.3793 163.776C53.8168 164.208 53.3935 164.787 53.1094 165.514C52.831 166.242 52.6918 167.049 52.6918 167.935C52.6918 168.844 52.8338 169.648 53.1179 170.347C53.4077 171.04 53.8338 171.585 54.3963 171.983C54.9645 172.375 55.669 172.571 56.5099 172.571ZM67.9304 166.708V174.583H65.919V161.492H67.8622V163.537H68.0327C68.3395 162.872 68.8054 162.338 69.4304 161.935C70.0554 161.526 70.8622 161.321 71.8509 161.321C72.7372 161.321 73.5128 161.503 74.1776 161.867C74.8423 162.225 75.3594 162.77 75.7287 163.503C76.098 164.23 76.2827 165.151 76.2827 166.264V174.583H74.2713V166.401C74.2713 165.372 74.0043 164.571 73.4702 163.997C72.9361 163.418 72.2031 163.128 71.2713 163.128C70.6293 163.128 70.0554 163.267 69.5497 163.546C69.0497 163.824 68.6548 164.23 68.3651 164.764C68.0753 165.299 67.9304 165.946 67.9304 166.708ZM85.4467 174.855C84.1854 174.855 83.0973 174.577 82.1825 174.02C81.2734 173.458 80.5717 172.674 80.0774 171.668C79.5888 170.657 79.3445 169.48 79.3445 168.139C79.3445 166.799 79.5888 165.617 80.0774 164.594C80.5717 163.566 81.2592 162.764 82.1399 162.191C83.0263 161.611 84.0604 161.321 85.2422 161.321C85.924 161.321 86.5973 161.435 87.2621 161.662C87.9268 161.889 88.532 162.259 89.0774 162.77C89.6229 163.276 90.0575 163.946 90.3814 164.782C90.7053 165.617 90.8672 166.645 90.8672 167.867V168.719H80.7763V166.98H88.8217C88.8217 166.242 88.674 165.583 88.3786 165.003C88.0888 164.424 87.674 163.966 87.1342 163.631C86.6001 163.296 85.9695 163.128 85.2422 163.128C84.4411 163.128 83.7479 163.327 83.1626 163.725C82.5831 164.117 82.1371 164.628 81.8246 165.259C81.5121 165.889 81.3558 166.566 81.3558 167.287V168.446C81.3558 169.435 81.5263 170.273 81.8672 170.96C82.2138 171.642 82.6939 172.162 83.3075 172.52C83.9212 172.872 84.6342 173.049 85.4467 173.049C85.9751 173.049 86.4524 172.975 86.8786 172.827C87.3104 172.674 87.6825 172.446 87.995 172.145C88.3075 171.838 88.549 171.458 88.7195 171.003L90.6626 171.549C90.4581 172.208 90.1143 172.787 89.6314 173.287C89.1484 173.782 88.5518 174.168 87.8416 174.446C87.1314 174.719 86.3331 174.855 85.4467 174.855ZM98.87 174.855C97.7791 174.855 96.8161 174.58 95.9808 174.029C95.1456 173.472 94.4922 172.688 94.0206 171.676C93.549 170.659 93.3132 169.458 93.3132 168.071C93.3132 166.696 93.549 165.503 94.0206 164.492C94.4922 163.48 95.1484 162.699 95.9893 162.148C96.8303 161.597 97.8018 161.321 98.9041 161.321C99.7564 161.321 100.43 161.463 100.924 161.747C101.424 162.026 101.805 162.344 102.066 162.702C102.333 163.054 102.54 163.344 102.688 163.571H102.859V157.128H104.87V174.583H102.927V172.571H102.688C102.54 172.81 102.33 173.111 102.058 173.475C101.785 173.833 101.396 174.154 100.89 174.438C100.384 174.716 99.7109 174.855 98.87 174.855ZM99.1428 173.049C99.9496 173.049 100.631 172.838 101.188 172.418C101.745 171.992 102.168 171.404 102.458 170.654C102.748 169.898 102.893 169.026 102.893 168.037C102.893 167.06 102.751 166.205 102.467 165.472C102.183 164.733 101.762 164.159 101.205 163.75C100.648 163.335 99.9609 163.128 99.1428 163.128C98.2905 163.128 97.5803 163.347 97.0121 163.784C96.4496 164.216 96.0263 164.804 95.7422 165.549C95.4638 166.287 95.3246 167.117 95.3246 168.037C95.3246 168.969 95.4666 169.816 95.7507 170.577C96.0405 171.333 96.4666 171.935 97.0291 172.384C97.5973 172.827 98.3018 173.049 99.1428 173.049ZM115.856 174.583V157.128H117.867V163.571H118.038C118.185 163.344 118.39 163.054 118.651 162.702C118.918 162.344 119.299 162.026 119.793 161.747C120.293 161.463 120.969 161.321 121.822 161.321C122.924 161.321 123.896 161.597 124.737 162.148C125.577 162.699 126.234 163.48 126.705 164.492C127.177 165.503 127.413 166.696 127.413 168.071C127.413 169.458 127.177 170.659 126.705 171.676C126.234 172.688 125.58 173.472 124.745 174.029C123.91 174.58 122.947 174.855 121.856 174.855C121.015 174.855 120.342 174.716 119.836 174.438C119.33 174.154 118.941 173.833 118.668 173.475C118.396 173.111 118.185 172.81 118.038 172.571H117.799V174.583H115.856ZM117.833 168.037C117.833 169.026 117.978 169.898 118.268 170.654C118.558 171.404 118.981 171.992 119.538 172.418C120.094 172.838 120.776 173.049 121.583 173.049C122.424 173.049 123.126 172.827 123.688 172.384C124.256 171.935 124.683 171.333 124.967 170.577C125.256 169.816 125.401 168.969 125.401 168.037C125.401 167.117 125.259 166.287 124.975 165.549C124.697 164.804 124.273 164.216 123.705 163.784C123.143 163.347 122.435 163.128 121.583 163.128C120.765 163.128 120.077 163.335 119.521 163.75C118.964 164.159 118.543 164.733 118.259 165.472C117.975 166.205 117.833 167.06 117.833 168.037ZM131.316 179.492C130.975 179.492 130.671 179.463 130.404 179.407C130.137 179.355 129.952 179.304 129.85 179.253L130.362 177.48C130.85 177.605 131.282 177.651 131.657 177.617C132.032 177.583 132.364 177.415 132.654 177.114C132.95 176.818 133.219 176.338 133.464 175.674L133.839 174.651L128.998 161.492H131.18L134.793 171.924H134.93L138.543 161.492H140.725L135.168 176.492C134.918 177.168 134.609 177.728 134.239 178.171C133.87 178.62 133.441 178.952 132.952 179.168C132.469 179.384 131.924 179.492 131.316 179.492Z" fill="white"/>
<path d="M160.512 175.656C158.635 175.656 156.98 175.275 155.547 174.514C154.113 173.752 152.997 172.677 152.198 171.287C151.399 169.897 151 168.271 151 166.41V165.975C151 164.09 151.393 162.458 152.179 161.08C152.965 159.702 154.069 158.633 155.489 157.871C156.91 157.11 158.545 156.729 160.397 156.729C162.249 156.729 163.821 157.11 165.191 157.871C166.56 158.633 167.626 159.702 168.386 161.08C169.147 162.457 169.528 164.066 169.528 165.902V167.388H155.413C155.463 168.791 155.983 169.915 156.973 170.761C157.962 171.607 159.18 172.03 160.626 172.03C162.072 172.03 163.098 171.734 163.784 171.141C164.468 170.549 164.989 169.879 165.344 169.129L168.959 170.906C168.603 171.559 168.089 172.254 167.417 172.991C166.745 173.728 165.851 174.356 164.735 174.876C163.619 175.396 162.211 175.656 160.512 175.656ZM155.452 164.234H165.078C164.977 163.051 164.5 162.107 163.651 161.406C162.801 160.706 161.704 160.355 160.36 160.355C159.017 160.355 157.849 160.706 157.012 161.406C156.175 162.108 155.655 163.051 155.452 164.234Z" fill="white"/>
<path d="M212.284 160.935C211.498 159.557 210.452 158.511 209.145 157.798C207.838 157.085 206.742 156.728 205.221 156.728C203.444 156.728 202.081 157.018 201.13 157.598C200.179 158.178 199.488 158.843 199.056 159.592H198.092V157.235H193.792L190.934 157.236H190.934L185.874 157.235L181.27 163.435H180.309L175.705 157.235H170.606L177.492 166.119L170.491 175.146H175.666L180.308 168.836H181.269L185.911 175.146H191.047L184.046 166.119L188.486 160.39C189.862 160.407 194.407 160.39 194.407 160.39V182.398H198.09V172.898H199.054C199.333 173.334 199.796 173.768 200.291 174.203C200.785 174.639 201.432 174.989 202.231 175.254C203.03 175.52 204.026 175.653 205.219 175.653C206.765 175.653 207.868 175.297 209.161 174.583C210.454 173.871 211.495 172.825 212.281 171.446C213.067 170.069 213.46 168.413 213.46 166.479V165.899C213.46 163.965 213.067 162.31 212.281 160.931L212.284 160.935ZM209.089 166.374C209.089 168.187 208.574 169.582 207.547 170.562C206.52 171.541 205.207 172.03 203.609 172.03C202.01 172.03 200.724 171.541 199.672 170.562C198.618 169.582 198.093 168.187 198.093 166.374V166.011C198.093 164.174 198.618 162.771 199.672 161.805C200.724 160.839 202.036 160.354 203.609 160.354C205.181 160.354 206.488 160.839 207.528 161.805C208.569 162.772 209.089 164.174 209.089 166.011V166.374Z" fill="white"/>
<path d="M216.824 175.148V149.768H221.2V175.148H216.824Z" fill="white"/>
<path d="M234.378 175.656C232.501 175.656 230.821 175.287 229.337 174.549C227.853 173.813 226.686 172.761 225.837 171.395C224.987 170.029 224.562 168.392 224.562 166.482V165.902C224.562 163.993 224.987 162.349 225.837 160.971C226.686 159.594 227.853 158.542 229.337 157.817C230.821 157.091 232.501 156.729 234.378 156.729C236.256 156.729 237.93 157.091 239.4 157.817C240.871 158.542 242.031 159.594 242.881 160.971C243.731 162.349 244.156 163.993 244.156 165.902V166.482C244.156 168.392 243.731 170.03 242.881 171.395C242.031 172.761 240.87 173.813 239.4 174.549C237.929 175.286 236.255 175.656 234.378 175.656ZM234.378 171.957C235.976 171.957 237.282 171.468 238.297 170.488C239.311 169.509 239.819 168.138 239.819 166.373V166.011C239.819 164.247 239.312 162.874 238.297 161.895C237.282 160.916 235.976 160.427 234.378 160.427C232.78 160.427 231.473 160.916 230.459 161.895C229.445 162.874 228.937 164.247 228.937 166.011V166.373C228.937 168.138 229.445 169.509 230.459 170.488C231.473 171.467 232.78 171.957 234.378 171.957Z" fill="white"/>
<path d="M248.825 175.148L245.896 157.237H250.233L252.249 172.356H252.897L255.75 157.237H262.751L265.605 172.356H266.252L268.269 157.237H272.606L269.677 175.148H262.41L259.594 160.029H258.947L256.093 175.148H248.826H248.825Z" fill="white"/>
</svg>
